D:\school\WTK\thesis\model\3dpredictsim\Results\debug_batch\Pog_s1_tmt_aCst_d00_k1000_ig24_pas_GRF.mot
nRows=12
nColumns=19

name D:\school\WTK\thesis\model\3dpredictsim\Results\debug_batch\Pog_s1_tmt_aCst_d00_k1000_ig24_pas_GRF.mot
datacolumns 19
datarows 12
range 0.5532151676 0.6749225044
endheader
time 	ground_force_vx	ground_force_vy	ground_force_vz	ground_force_px	ground_force_py	ground_force_pz	1_ground_force_vx	1_ground_force_vy	1_ground_force_vz	1_ground_force_px	1_ground_force_py	1_ground_force_pz	ground_torque_x	ground_torque_y	ground_torque_z	1_ground_torque_x	1_ground_torque_y	1_ground_torque_z
        0.5532151676	      101.7335192689	      533.1601172558	        3.2777958335	        0.3806608545	        0.0000000000	        0.0357741375	      -73.5779951882	       59.4594133635	      -26.3565523077	        0.8656825422	        0.0000000000	       -0.0386278825	        0.0000000000	        0.0000000000	        0.0000000000	        0.0000000000	        0.0000000000	        0.0000000000	
        0.5642794709	       86.8618446388	      456.3247747648	        7.1910713105	        0.3838075823	        0.0000000000	        0.0349596347	     -116.2698455388	      131.5684385216	      -68.2870922403	        0.8733497428	        0.0000000000	       -0.0362893446	        0.0000000000	        0.0000000000	        0.0000000000	        0.0000000000	        0.0000000000	        0.0000000000	
        0.5753437743	       69.9813759971	      371.3495405746	        9.0569182623	        0.3883834776	        0.0000000000	        0.0334693653	      -44.5558106570	      261.3108249149	      -34.5815253097	        0.8790416259	        0.0000000000	       -0.0338473711	        0.0000000000	        0.0000000000	        0.0000000000	        0.0000000000	        0.0000000000	        0.0000000000	
        0.5864080776	       47.6064684678	      278.5389712738	        5.8584942970	        0.3957902172	        0.0000000000	        0.0304787326	      -37.2759004866	      406.0158865963	       -5.5677057280	        0.8823153415	        0.0000000000	       -0.0335773025	        0.0000000000	        0.0000000000	        0.0000000000	        0.0000000000	        0.0000000000	        0.0000000000	
        0.5974723810	       20.5921667398	      181.8733466798	        7.4778701359	        0.4094296049	        0.0000000000	        0.0243184932	      -66.6736088823	      581.3343252614	        4.0363571778	        0.8898955760	        0.0000000000	       -0.0357871595	        0.0000000000	        0.0000000000	        0.0000000000	        0.0000000000	        0.0000000000	        0.0000000000	
        0.6085366843	        4.6241136400	      135.2521036185	       11.8157955954	        0.4180050134	        0.0000000000	        0.0199720260	      -94.1194586520	      728.9634213258	       10.1785165458	        0.8967922557	        0.0000000000	       -0.0378602723	        0.0000000000	        0.0000000000	        0.0000000000	        0.0000000000	        0.0000000000	        0.0000000000	
        0.6196009877	        2.0316045722	      103.8737772703	       12.3652493357	        0.4184782422	        0.0000000000	        0.0200729917	     -106.5722687678	      803.5536353179	       11.8845779389	        0.9014877013	        0.0000000000	       -0.0391555565	        0.0000000000	        0.0000000000	        0.0000000000	        0.0000000000	        0.0000000000	        0.0000000000	
        0.6306652910	       -2.2368066320	       67.3164280817	       11.3293896329	        0.4189217035	        0.0000000000	        0.0201264830	     -105.6877208631	      820.4918740665	       12.4317371853	        0.9049219695	        0.0000000000	       -0.0399384754	        0.0000000000	        0.0000000000	        0.0000000000	        0.0000000000	        0.0000000000	        0.0000000000	
        0.6417295944	       -7.9209606059	       27.6455923202	        5.7134643843	        0.4185927502	        0.0000000000	        0.0198460690	      -99.1531390855	      810.0090415197	       12.4990327344	        0.9080176514	        0.0000000000	       -0.0403949786	        0.0000000000	        0.0000000000	        0.0000000000	        0.0000000000	        0.0000000000	        0.0000000000	
        0.6527938977	        0.1055416326	       -0.1043450543	       -0.0022411255	        0.0000000000	        0.0000000000	        0.0000000000	      -90.0840742528	      792.9123495094	       13.0552248254	        0.9113173198	        0.0000000000	       -0.0406103919	        0.0000000000	        0.0000000000	        0.0000000000	        0.0000000000	        0.0000000000	        0.0000000000	
        0.6638582011	        0.0002037443	       -0.0001649549	        0.0000115967	        0.0000000000	        0.0000000000	        0.0000000000	      -78.5890300032	      767.7962109017	       14.0165584964	        0.9148314689	        0.0000000000	       -0.0407101723	        0.0000000000	        0.0000000000	        0.0000000000	        0.0000000000	        0.0000000000	        0.0000000000	
        0.6749225044	        0.0000892448	       -0.0000627247	        0.0000066822	        0.0000000000	        0.0000000000	        0.0000000000	      -68.8599689980	      740.6007416967	       14.5466509738	        0.9190965511	        0.0000000000	       -0.0407029146	        0.0000000000	        0.0000000000	        0.0000000000	        0.0000000000	        0.0000000000	        0.0000000000	
